<svg xmlns="http://www.w3.org/2000/svg" width="184" height="72.411" viewBox="0 0 184 72.411">
  <g id="그룹_2" data-name="그룹 2" transform="translate(51.288 -42.655)">
    <g id="그룹_1" data-name="그룹 1" transform="translate(11.633 58.808)">
      <path id="패스_1" data-name="패스 1" d="M-37.112,46.294H-3.2v6.787H-15.612V92.756H-24.7V53.081H-37.112Z" transform="translate(37.112 -46.294)"/>
      <path id="패스_2" data-name="패스 2" d="M-22.143,46.294h31.8a7.865,7.865,0,0,1,3.489.994,20.373,20.373,0,0,1,3.711,2.432,16.629,16.629,0,0,1,2.947,3.071A5.159,5.159,0,0,1,20.987,55.7V92.756H11.9V57.111a4.32,4.32,0,0,0-.959-2.912,3.28,3.28,0,0,0-2.623-1.118H.831V92.756h-9.09V53.081H-19.519V92.756h-9.086V52.117a3.8,3.8,0,0,1,.191-1.407A1.814,1.814,0,0,1-27.9,50l3.777-3.134a2.044,2.044,0,0,1,.959-.479A5.345,5.345,0,0,1-22.143,46.294Z" transform="translate(66.364 -46.294)"/>
      <path id="패스_3" data-name="패스 3" d="M-3.318,85.97H11.338v6.786H-4.472a8.059,8.059,0,0,1-3.52-.994,20.674,20.674,0,0,1-3.773-2.432,16.351,16.351,0,0,1-3.009-3.1,5.221,5.221,0,0,1-1.216-2.943V55.957a8.281,8.281,0,0,1,.83-3.644,9.973,9.973,0,0,1,2.308-3.076,11.619,11.619,0,0,1,3.391-2.144,10.7,10.7,0,0,1,4.159-.8H11.076v6.787H-3a4.894,4.894,0,0,0-2.685.768A2.991,2.991,0,0,0-6.9,56.6V81.94a4.049,4.049,0,0,0,.959,2.85A3.766,3.766,0,0,0-3.318,85.97Z" transform="translate(109.74 -46.294)"/>
    </g>
    <path id="패스_4" data-name="패스 4" d="M-28.18,102.551a3.4,3.4,0,0,1-2.379-.985l-19.7-19.352a3.4,3.4,0,0,1-1.012-2.747L-48.54,49.4a3.422,3.422,0,0,1,1.975-2.8,3.457,3.457,0,0,1,3.413.315l18.966,13.475a3.41,3.41,0,0,1,1.443,2.974l-2,35.939a3.394,3.394,0,0,1-2.175,3A3.489,3.489,0,0,1-28.18,102.551ZM-46.809,79.382-29.05,96.825l1.842-33.138L-44.279,51.561Zm-.346-.342,0,.009Zm20.4-15.029.009,0Z" transform="translate(0 12.515)" fill="#4d31b2"/>
    <path id="패스_5" data-name="패스 5" d="M-41.961,94.809q-1.425,0-2.894,0a6.4,6.4,0,0,1-4.7-2.077,6.384,6.384,0,0,1-1.633-4.86l2.326-25.49a6.4,6.4,0,0,1,4.137-5.393L-7.065,43.06a6.321,6.321,0,0,1,5.721.648A6.3,6.3,0,0,1,1.523,48.67l.013.253-5.7,33.44c-.071,1.864-3.071,7.794-8.3,10.4C-15.765,94.422-26.586,94.809-41.961,94.809ZM-4.842,47.1a1.937,1.937,0,0,0-.684.124L-43.182,61.147a1.935,1.935,0,0,0-1.256,1.629l-2.326,25.5a1.894,1.894,0,0,0,.493,1.465c.95,1.034,2.57.63,4.612.63,8.469,0,24.35-.138,27.213-1.571a13.236,13.236,0,0,0,5.868-6.76l-.013-.244.018-.249,5.641-32.832a1.877,1.877,0,0,0-.843-1.292A1.936,1.936,0,0,0-4.842,47.1Z" transform="translate(0.27 0)" fill="#278998"/>
  </g>
</svg>
